<svg xmlns="http://www.w3.org/2000/svg" viewBox="0 0 720 420" font-family="system-ui,sans-serif">
<circle cx="76" cy="18" r="5" fill="#2a78d6"/><text x="86" y="22" fill="#374151" font-size="12">OpenAI</text><circle cx="186" cy="18" r="5" fill="#eb6834"/><text x="196" y="22" fill="#374151" font-size="12">Anthropic</text><circle cx="296" cy="18" r="5" fill="#1baf7a"/><text x="306" y="22" fill="#374151" font-size="12">xAI</text>
<line x1="64" y1="368" x2="696" y2="368" stroke="#e5e7eb" stroke-width="1"/>
<text x="56" y="372" text-anchor="end" fill="#6b7280" font-size="11">85%</text>
<line x1="64" y1="287" x2="696" y2="287" stroke="#e5e7eb" stroke-width="1"/>
<text x="56" y="291" text-anchor="end" fill="#6b7280" font-size="11">87.5%</text>
<line x1="64" y1="206" x2="696" y2="206" stroke="#e5e7eb" stroke-width="1"/>
<text x="56" y="210" text-anchor="end" fill="#6b7280" font-size="11">90%</text>
<line x1="64" y1="125" x2="696" y2="125" stroke="#e5e7eb" stroke-width="1"/>
<text x="56" y="129" text-anchor="end" fill="#6b7280" font-size="11">92.5%</text>
<line x1="64" y1="44" x2="696" y2="44" stroke="#e5e7eb" stroke-width="1"/>
<text x="56" y="48" text-anchor="end" fill="#6b7280" font-size="11">95%</text>
<text x="64" y="386" text-anchor="middle" fill="#6b7280" font-size="11">$0</text>
<text x="154.28571428571428" y="386" text-anchor="middle" fill="#6b7280" font-size="11">$2</text>
<text x="244.57142857142858" y="386" text-anchor="middle" fill="#6b7280" font-size="11">$4</text>
<text x="334.85714285714283" y="386" text-anchor="middle" fill="#6b7280" font-size="11">$6</text>
<text x="425.14285714285717" y="386" text-anchor="middle" fill="#6b7280" font-size="11">$8</text>
<text x="515.4285714285714" y="386" text-anchor="middle" fill="#6b7280" font-size="11">$10</text>
<text x="605.7142857142857" y="386" text-anchor="middle" fill="#6b7280" font-size="11">$12</text>
<text x="696" y="386" text-anchor="middle" fill="#6b7280" font-size="11">$14</text>
<circle cx="644.3836571428571" cy="105.70294117647066" r="7" fill="#eb6834" stroke="#fcfcfb" stroke-width="2"/>
<text x="644.3836571428571" y="93.70294117647066" text-anchor="middle" fill="#374151" font-size="11.5">claude-fable-5</text>
<circle cx="456.6480571428572" cy="146.67941176470595" r="7" fill="#2a78d6" stroke="#fcfcfb" stroke-width="2"/>
<text x="456.6480571428572" y="134.67941176470595" text-anchor="middle" fill="#374151" font-size="11.5">gpt-5.6-sol</text>
<circle cx="553.5336571428572" cy="158.82941176470598" r="7" fill="#eb6834" stroke="#fcfcfb" stroke-width="2"/>
<text x="553.5336571428572" y="180.82941176470598" text-anchor="middle" fill="#374151" font-size="11.5">claude-opus-5</text>
<circle cx="152.86371428571428" cy="170.97941176470596" r="7" fill="#1baf7a" stroke="#fcfcfb" stroke-width="2"/>
<text x="192.86371428571428" y="158.97941176470596" text-anchor="middle" fill="#374151" font-size="11.5">grok-4.5</text>
<circle cx="436.8348571428572" cy="175.02941176470642" r="7" fill="#eb6834" stroke="#fcfcfb" stroke-width="2"/>
<text x="436.8348571428572" y="197.02941176470642" text-anchor="middle" fill="#374151" font-size="11.5">claude-sonnet-5</text>
<circle cx="129.81377142857144" cy="180.62794117647064" r="7" fill="#2a78d6" stroke="#fcfcfb" stroke-width="2"/>
<text x="83.81377142857144" y="168.62794117647064" text-anchor="middle" fill="#374151" font-size="11.5">gpt-5.6-luna</text>
<circle cx="130.99200000000002" cy="203.37941176470596" r="7" fill="#2a78d6" stroke="#fcfcfb" stroke-width="2"/>
<text x="130.99200000000002" y="225.37941176470596" text-anchor="middle" fill="#374151" font-size="11.5">gpt-5.6-terra</text>
<text x="380" y="410" text-anchor="middle" fill="#374151" font-size="12.5">Build cost per app (USD, list price)</text>
<text transform="rotate(-90)" x="-206" y="16" text-anchor="middle" fill="#374151" font-size="12.5">Composite score (axis from 85%)</text>
</svg>